<svg width="18" height="18" viewBox="0 0 18 18" fill="none" xmlns="http://www.w3.org/2000/svg">
<path d="M9.38 17.5C8.3 17.5 7.35333 17.3267 6.54 16.98C5.74 16.6333 5.11333 16.1267 4.66 15.46C4.22 14.8067 4 14.0267 4 13.12C4 12.2 4.22 11.4133 4.66 10.76C5.11333 10.1067 5.74 9.60667 6.54 9.26C7.35333 8.9 8.30667 8.72 9.4 8.72H13.28V11.04H9.4C8.45333 11.04 7.76 11.2133 7.32 11.56C6.89333 11.9067 6.68 12.4267 6.68 13.12C6.68 13.8133 6.89333 14.3333 7.32 14.68C7.76 15.0267 8.44667 15.2 9.38 15.2C9.71333 15.2 10.1133 15.18 10.58 15.14C11.0467 15.1 11.6133 15.04 12.28 14.96L12.66 17.1C12.06 17.22 11.4867 17.3133 10.94 17.38C10.4067 17.46 9.88667 17.5 9.38 17.5ZM7.04 10.72C6.36 10.08 5.84667 9.4 5.5 8.68C5.16667 7.96 5 7.19333 5 6.38C5 5.59333 5.14667 4.87333 5.44 4.22C5.73333 3.55333 6.13333 2.98 6.64 2.5C7.14667 2.02 7.73333 1.65333 8.4 1.4C9.08 1.13333 9.79333 1 10.54 1C10.94 1 11.36 1.04 11.8 1.12C12.24 1.2 12.66 1.30667 13.06 1.44L12.28 3.62C11.9867 3.52667 11.7 3.45333 11.42 3.4C11.1533 3.34667 10.8933 3.32 10.64 3.32C10.04 3.32 9.51333 3.45333 9.06 3.72C8.62 3.97333 8.27333 4.32667 8.02 4.78C7.78 5.23333 7.66 5.75333 7.66 6.34C7.66 6.87333 7.76667 7.37333 7.98 7.84C8.20667 8.30667 8.52667 8.72667 8.94 9.1L7.04 10.72Z" fill="white"/>
</svg>
