<svg width="31" height="25" viewBox="0 0 31 25" fill="none" xmlns="http://www.w3.org/2000/svg">
<path d="M30.2246 19.25C30.3729 19.25 30.5 19.372 30.5 19.5312C30.5 22.2793 28.2915 24.4999 25.5752 24.5H12.335C13.6167 23.5548 14.4502 22.0292 14.4502 20.3125V19.25H30.2246ZM21.7002 0.5C23.9845 0.500109 25.8496 2.37495 25.8496 4.6875V16.6875H11.9004V20.1455C11.9002 21.4978 10.9847 22.697 9.74023 22.9014H9.73926C8.11086 23.1684 6.7002 21.9114 6.7002 20.3125V2.34375C6.7002 1.68062 6.54564 1.05868 6.2832 0.5H21.7002ZM2.3252 0.5C3.32733 0.500107 4.15039 1.32368 4.15039 2.34375V5.75H0.775391C0.627125 5.75 0.5 5.62804 0.5 5.46875V2.34375C0.5 1.32362 1.32298 0.5 2.3252 0.5Z" stroke="black"/>
</svg>
