<svg width="33" height="25" viewBox="0 0 33 25" fill="none" xmlns="http://www.w3.org/2000/svg">
<path d="M16.0625 6.48566L5.50043 14.9604V24.107C5.50043 24.3439 5.597 24.571 5.7689 24.7385C5.94079 24.9059 6.17393 25 6.41703 25L12.8366 24.9838C13.0789 24.9826 13.3109 24.888 13.4818 24.7207C13.6527 24.5534 13.7487 24.3269 13.7487 24.0909V18.7493C13.7487 18.5125 13.8452 18.2853 14.0171 18.1179C14.189 17.9504 14.4222 17.8563 14.6652 17.8563H18.3316C18.5747 17.8563 18.8079 17.9504 18.9798 18.1179C19.1517 18.2853 19.2482 18.5125 19.2482 18.7493V24.087C19.2479 24.2045 19.2713 24.3209 19.3172 24.4295C19.3631 24.5382 19.4305 24.637 19.5157 24.7202C19.6008 24.8034 19.702 24.8694 19.8134 24.9145C19.9248 24.9595 20.0442 24.9827 20.1648 24.9827L26.5821 25C26.8252 25 27.0584 24.9059 27.2303 24.7385C27.4022 24.571 27.4987 24.3439 27.4987 24.107V14.9542L16.939 6.48566C16.8148 6.38817 16.6602 6.33501 16.5007 6.33501C16.3413 6.33501 16.1866 6.38817 16.0625 6.48566ZM32.7463 12.2458L27.957 8.39993V0.669718C27.957 0.492097 27.8846 0.321752 27.7557 0.196156C27.6268 0.0705595 27.4519 0 27.2696 0H24.0615C23.8792 0 23.7043 0.0705595 23.5754 0.196156C23.4465 0.321752 23.3741 0.492097 23.3741 0.669718V4.72207L18.2451 0.611117C17.7529 0.21653 17.1353 0.000788785 16.4979 0.000788785C15.8604 0.000788785 15.2428 0.21653 14.7506 0.611117L0.249485 12.2458C0.179874 12.3018 0.122282 12.3707 0.0799993 12.4484C0.0377167 12.5262 0.0115725 12.6113 0.00306037 12.6989C-0.00545171 12.7865 0.00383519 12.8748 0.0303904 12.9589C0.0569457 13.043 0.100249 13.1212 0.157826 13.189L1.61865 14.9191C1.67607 14.9871 1.7467 15.0434 1.82649 15.0848C1.90628 15.1262 1.99367 15.1519 2.08365 15.1603C2.17363 15.1688 2.26444 15.1598 2.35087 15.1341C2.43731 15.1083 2.51768 15.0661 2.58738 15.01L16.0625 4.19746C16.1866 4.09997 16.3413 4.04681 16.5007 4.04681C16.6602 4.04681 16.8148 4.09997 16.939 4.19746L30.4147 15.01C30.4842 15.0661 30.5645 15.1083 30.6508 15.1342C30.7371 15.1601 30.8278 15.1691 30.9177 15.1608C31.0076 15.1525 31.095 15.1271 31.1748 15.0859C31.2546 15.0447 31.3253 14.9886 31.3828 14.9208L32.8436 13.1906C32.9012 13.1225 32.9443 13.0439 32.9705 12.9594C32.9968 12.875 33.0056 12.7863 32.9966 12.6985C32.9875 12.6107 32.9607 12.5255 32.9178 12.4478C32.8748 12.3701 32.8165 12.3015 32.7463 12.2458Z" fill="#66023C"/>
</svg>
