<svg width="25" height="25" viewBox="0 0 25 25" fill="none" xmlns="http://www.w3.org/2000/svg">
<path d="M9.01592 8.80373C8.79151 8.05179 8.51581 6.74055 8.51581 6.74055H8.48375C8.48375 6.74055 8.20805 8.05179 7.98364 8.80373L7.27195 11.1341H9.71479L9.01592 8.80373ZM3.04026 15.0119L6.72696 4.50337C6.83596 4.19886 7.12448 4 7.45789 4H9.54167C9.86867 4 10.1636 4.20508 10.2726 4.50337L13.9593 15.0119C14.126 15.4966 13.7605 16 13.2284 16H11.7601C11.5942 15.9999 11.4327 15.9478 11.2999 15.8515C11.167 15.7552 11.0698 15.6198 11.0228 15.4656L10.4201 13.4832H6.56026L5.9768 15.4593C5.88062 15.7763 5.57927 16 5.23946 16H3.77119C3.24543 16 2.87356 15.4966 3.04026 15.0119Z" fill="#66023C"/>
<path d="M17.042 6.75C17.6267 6.75018 18.1045 7.22772 18.1045 7.8125V8.64551H22.1875C22.7724 8.64551 23.25 9.12312 23.25 9.70801V10.791C23.2498 11.3757 22.7723 11.8525 22.1875 11.8525H21.5986C21.1199 13.3646 20.1848 14.8725 18.8945 16.2988C19.3899 16.6679 19.8984 17.0201 20.4219 17.3398H20.4229C20.911 17.6415 21.0682 18.2708 20.7871 18.7715L20.7861 18.7734L20.252 19.7139L20.251 19.7148C19.9504 20.2362 19.2863 20.4045 18.7744 20.0957L18.7725 20.0938C17.9708 19.5976 17.2105 19.0691 16.5059 18.5117C15.8039 19.0628 15.0496 19.5978 14.2402 20.0947L14.2393 20.0957C13.7274 20.4045 13.0633 20.2363 12.7627 19.7148L12.7617 19.7139L12.2266 18.7734V18.7725C11.9439 18.2767 12.1033 17.6396 12.5986 17.3389C13.1389 17.0078 13.6472 16.6604 14.126 16.2998C13.6599 15.7879 13.2398 15.2668 12.8691 14.7383C12.5136 14.2315 12.6742 13.5328 13.1963 13.2227L13.6357 12.959L13.6377 12.958L14.1318 12.667L14.2227 12.6191C14.6847 12.4025 15.2465 12.544 15.5459 12.9668L15.8037 13.3145C16.0217 13.5967 16.2616 13.877 16.5195 14.1572C17.2209 13.3911 17.7771 12.6132 18.1582 11.8525H10.8125C10.2277 11.8525 9.75021 11.3757 9.75 10.791V9.70801L9.75586 9.59961C9.81034 9.06509 10.2641 8.64551 10.8125 8.64551H14.8955V7.8125C14.8955 7.22772 15.3733 6.75018 15.958 6.75H17.042Z" fill="#66023C" stroke="#C0ACC5" stroke-width="0.5"/>
</svg>
