<svg width="22" height="25" viewBox="0 0 22 25" fill="none" xmlns="http://www.w3.org/2000/svg">
<path d="M7.57324 14.7139C7.72372 14.7493 7.87174 14.7908 8.01758 14.8418L8.01855 14.8428C8.80229 15.1156 9.63451 15.2839 10.499 15.332L10.4951 24.5H2.19922C1.26048 24.5 0.500007 23.7399 0.5 22.8125V20.625C0.5 17.8309 2.40578 15.4926 5.00293 14.7949V20.708C5.00293 21.0428 4.96222 21.3066 4.9209 21.5215C4.90523 21.6029 4.87267 21.7568 4.85938 21.8281C4.84248 21.9188 4.82298 22.0363 4.82617 22.1543C4.82966 22.2808 4.86012 22.4486 4.97949 22.6006C5.09584 22.7486 5.25004 22.8218 5.37793 22.8613C5.6074 22.9322 5.92428 22.9424 6.28809 22.9424C6.65195 22.9424 6.9688 22.9322 7.19824 22.8613C7.32604 22.8218 7.47943 22.7484 7.5957 22.6006C7.71508 22.4486 7.74554 22.2808 7.74902 22.1543C7.75222 22.0363 7.73272 21.9188 7.71582 21.8281C7.70251 21.7567 7.66995 21.6029 7.6543 21.5215C7.61297 21.3066 7.57324 21.0428 7.57324 20.708V14.7139ZM14.4268 20.708C14.4268 21.0428 14.387 21.3066 14.3457 21.5215C14.3301 21.6029 14.2975 21.7567 14.2842 21.8281C14.2673 21.9188 14.2478 22.0363 14.251 22.1543C14.2545 22.2808 14.2849 22.4486 14.4043 22.6006C14.5206 22.7484 14.674 22.8218 14.8018 22.8613C15.0312 22.9322 15.3481 22.9424 15.7119 22.9424C16.0757 22.9424 16.3926 22.9321 16.6221 22.8613C16.75 22.8218 16.9041 22.7487 17.0205 22.6006C17.1398 22.4487 17.1703 22.2818 17.1738 22.1553C17.1771 22.0372 17.1575 21.9189 17.1406 21.8281C17.1273 21.7568 17.0947 21.6028 17.0791 21.5215C17.0378 21.3066 16.9971 21.0428 16.9971 20.708V14.7949C19.5942 15.4926 21.5 17.8309 21.5 20.625V22.8125C21.5 23.7399 20.7395 24.5 19.8008 24.5H11.4951L11.499 15.332C12.3642 15.2841 13.1971 15.1158 13.9814 14.8428L13.9824 14.8418C14.1283 14.7908 14.2763 14.7493 14.4268 14.7139V20.708ZM10.9951 0.5C14.1918 0.500014 16.7783 3.07648 16.7783 6.25C16.7783 9.42352 14.1918 12 10.9951 12C7.79846 12 5.21192 9.42353 5.21191 6.25C5.21191 3.07647 7.79846 0.5 10.9951 0.5Z" stroke="black"/>
</svg>
